<?xml version="1.0" encoding="UTF-8"?>
<!DOCTYPE svg PUBLIC "-//W3C//DTD SVG 1.1//EN" "http://www.w3.org/Graphics/SVG/1.1/DTD/svg11.dtd">
<svg version="1.1" xmlns="http://www.w3.org/2000/svg" xmlns:xlink="http://www.w3.org/1999/xlink" x="0" y="0" width="1008" height="1008" viewBox="0, 0, 1008, 1008">
  <defs>
    <clipPath id="Clip_1">
      <path d="M95.899,95.899 L923,95.899 L923,923 L95.899,923 z"/>
    </clipPath>
  </defs>
  <g id="Layer_1">
    <g>
      <path d="M138.914,95.899 L875.754,95.899 C901.847,95.899 923,116.805 923,142.595 L923,876.304 C923,902.094 901.847,923 875.754,923 L138.914,923 C112.82,923 91.667,902.094 91.667,876.304 L91.667,142.595 C91.667,116.805 112.82,95.899 138.914,95.899 z" fill="#007D5D"/>
      <path d="M138.914,95.899 L875.754,95.899 C901.847,95.899 923,116.805 923,142.595 L923,876.304 C923,902.094 901.847,923 875.754,923 L138.914,923 C112.82,923 91.667,902.094 91.667,876.304 L91.667,142.595 C91.667,116.805 112.82,95.899 138.914,95.899 z" fill-opacity="0" stroke="#FFFFFF" stroke-width="15"/>
    </g>
    <path d="M801.247,387.86 C861.301,455.442 889.688,541.603 891.971,630.33 C892.24,719.869 858.858,804.197 801.247,872.799 L217.509,872.799 C157.455,805.216 129.068,719.056 126.785,630.33 C126.515,540.791 159.899,456.462 217.509,387.86 L801.247,387.86 z" fill="#FFFFFF"/>
    <path d="M158.568,145.516 L859.282,145.516 C874.83,145.516 887.434,157.728 887.434,172.792 L887.434,325.529 C887.434,340.593 874.83,352.805 859.282,352.805 L158.568,352.805 C143.021,352.805 130.416,340.593 130.416,325.529 L130.416,172.792 C130.416,157.728 143.021,145.516 158.568,145.516 z" fill="#FFFFFF"/>
    <g id="black_text">
      <path d="M258.981,180.78 L224.464,319.259 L207.309,319.259 L173.412,180.78 L193.254,180.78 L215.989,270.895 L238.931,180.78 z" fill="#000000"/>
      <path d="M345.375,319.259 L274.895,319.259 L274.895,180.78 L340.001,180.78 L340.001,200.208 L294.737,200.208 L294.737,235.138 L323.466,235.138 L323.466,254.153 L294.737,254.153 L294.737,299.831 L345.375,299.831 z" fill="#000000"/>
      <path d="M445.204,319.259 L424.742,319.259 L406.347,254.153 L387.332,254.153 L387.332,319.259 L367.49,319.259 L367.49,180.78 L408.827,180.78 Q425.155,180.78 435.18,190.907 Q445.204,201.035 445.204,217.776 Q445.204,228.731 439.727,238.342 Q434.249,247.953 425.155,251.259 z M425.775,217.157 Q425.775,209.302 420.815,204.755 Q415.855,200.208 407.794,200.208 L387.332,200.208 L387.332,234.311 L407.794,234.311 Q415.234,234.311 420.505,229.351 Q425.775,224.39 425.775,217.157 z" fill="#000000"/>
      <path d="M558.468,319.259 L538.419,319.259 L538.419,241.546 L512.79,319.259 L486.955,241.546 L486.955,319.259 L467.113,319.259 L467.113,180.78 L486.955,180.78 L512.79,258.494 L538.419,180.78 L558.468,180.78 z" fill="#000000"/>
      <path d="M617.993,321.739 Q596.704,321.739 586.783,303.861 Q576.863,285.983 576.863,250.019 Q576.863,214.47 586.783,196.488 Q596.704,178.506 617.993,178.506 Q639.282,178.506 649.202,196.488 Q659.123,214.47 659.123,250.019 Q659.123,285.983 649.202,303.861 Q639.282,321.739 617.993,321.739 z M617.993,302.311 Q629.36,302.518 634.321,289.703 Q639.282,276.889 639.282,249.606 Q639.282,222.737 634.321,210.336 Q629.36,197.935 617.993,197.935 Q606.625,197.935 601.665,210.336 Q596.704,222.737 596.704,249.606 Q596.704,276.889 601.665,289.703 Q606.625,302.518 617.993,302.311 z" fill="#000000"/>
      <path d="M752.959,319.259 L733.737,319.259 L695.087,231.211 L695.087,319.259 L675.245,319.259 L675.245,180.78 L695.087,180.78 L732.91,267.588 L732.91,180.78 L752.959,180.78 z" fill="#000000"/>
      <path d="M839.354,199.382 L814.138,199.382 L814.138,319.259 L794.089,319.259 L794.089,199.382 L768.873,199.382 L768.873,180.78 L839.354,180.78 z" fill="#000000"/>
      <path d="M514.529,828.831 L330.807,828.831 Q331.299,776.647 356.352,710.368 Q381.404,644.09 432.001,591.307 Q450.177,573.312 459.756,557.717 Q469.335,542.122 469.335,528.326 Q469.335,509.733 455.826,493.238 Q442.317,476.743 423.159,476.743 Q404.001,476.743 390.492,493.238 Q376.983,509.733 376.983,533.124 L330.807,533.124 Q331.79,488.739 358.071,454.549 Q384.352,420.361 423.159,420.361 Q460.984,420.361 487.756,450.351 Q514.529,480.342 514.529,525.927 Q514.529,557.117 501.02,581.41 Q487.511,605.701 468.353,626.695 Q442.317,656.086 418.738,694.173 Q395.159,732.262 387.299,772.448 L514.529,772.448 z" fill="#000000"/>
      <path d="M675.762,753.883 Q675.762,779.69 666.571,795.599 Q658.086,810.094 642.354,819.462 Q626.622,828.831 610.006,828.831 Q592.683,828.831 576.597,819.639 Q560.512,810.447 552.027,795.599 Q542.836,779.337 542.836,753.883 L542.836,587.725 L576.774,587.725 L576.774,758.125 Q576.774,775.094 585.966,785.347 Q595.158,795.599 610.006,795.599 Q623.794,795.599 632.632,785.17 Q641.47,774.741 641.47,758.125 L641.47,587.725 L675.762,587.725 z" fill="#000000"/>
    </g>
    <g id="green_text">
      <path d="M258.981,180.78 L224.464,319.259 L207.309,319.259 L173.412,180.78 L193.254,180.78 L215.989,270.895 L238.931,180.78 z" fill="#007D5D"/>
      <path d="M345.375,319.259 L274.895,319.259 L274.895,180.78 L340.001,180.78 L340.001,200.208 L294.737,200.208 L294.737,235.138 L323.466,235.138 L323.466,254.153 L294.737,254.153 L294.737,299.831 L345.375,299.831 z" fill="#007D5D"/>
      <path d="M445.204,319.259 L424.742,319.259 L406.347,254.153 L387.332,254.153 L387.332,319.259 L367.49,319.259 L367.49,180.78 L408.827,180.78 Q425.155,180.78 435.18,190.907 Q445.204,201.035 445.204,217.776 Q445.204,228.731 439.727,238.342 Q434.249,247.953 425.155,251.259 z M425.775,217.157 Q425.775,209.302 420.815,204.755 Q415.855,200.208 407.794,200.208 L387.332,200.208 L387.332,234.311 L407.794,234.311 Q415.234,234.311 420.505,229.351 Q425.775,224.39 425.775,217.157 z" fill="#007D5D"/>
      <path d="M558.468,319.259 L538.419,319.259 L538.419,241.546 L512.79,319.259 L486.955,241.546 L486.955,319.259 L467.113,319.259 L467.113,180.78 L486.955,180.78 L512.79,258.494 L538.419,180.78 L558.468,180.78 z" fill="#007D5D"/>
      <path d="M617.993,321.739 Q596.704,321.739 586.783,303.861 Q576.863,285.983 576.863,250.019 Q576.863,214.47 586.783,196.488 Q596.704,178.506 617.993,178.506 Q639.282,178.506 649.202,196.488 Q659.123,214.47 659.123,250.019 Q659.123,285.983 649.202,303.861 Q639.282,321.739 617.993,321.739 z M617.993,302.311 Q629.36,302.518 634.321,289.703 Q639.282,276.889 639.282,249.606 Q639.282,222.737 634.321,210.336 Q629.36,197.935 617.993,197.935 Q606.625,197.935 601.665,210.336 Q596.704,222.737 596.704,249.606 Q596.704,276.889 601.665,289.703 Q606.625,302.518 617.993,302.311 z" fill="#007D5D"/>
      <path d="M752.959,319.259 L733.737,319.259 L695.087,231.211 L695.087,319.259 L675.245,319.259 L675.245,180.78 L695.087,180.78 L732.91,267.588 L732.91,180.78 L752.959,180.78 z" fill="#007D5D"/>
      <path d="M839.354,199.382 L814.138,199.382 L814.138,319.259 L794.089,319.259 L794.089,199.382 L768.873,199.382 L768.873,180.78 L839.354,180.78 z" fill="#007D5D"/>
      <path d="M514.529,828.831 L330.807,828.831 Q331.299,776.647 356.352,710.368 Q381.404,644.09 432.001,591.307 Q450.177,573.312 459.756,557.717 Q469.335,542.122 469.335,528.326 Q469.335,509.733 455.826,493.238 Q442.317,476.743 423.159,476.743 Q404.001,476.743 390.492,493.238 Q376.983,509.733 376.983,533.124 L330.807,533.124 Q331.79,488.739 358.071,454.549 Q384.352,420.361 423.159,420.361 Q460.984,420.361 487.756,450.351 Q514.529,480.342 514.529,525.927 Q514.529,557.117 501.02,581.41 Q487.511,605.701 468.353,626.695 Q442.317,656.086 418.738,694.173 Q395.159,732.262 387.299,772.448 L514.529,772.448 z" fill="#007D5D"/>
      <path d="M675.762,753.883 Q675.762,779.69 666.571,795.599 Q658.086,810.094 642.354,819.462 Q626.622,828.831 610.006,828.831 Q592.683,828.831 576.597,819.639 Q560.512,810.447 552.027,795.599 Q542.836,779.337 542.836,753.883 L542.836,587.725 L576.774,587.725 L576.774,758.125 Q576.774,775.094 585.966,785.347 Q595.158,795.599 610.006,795.599 Q623.794,795.599 632.632,785.17 Q641.47,774.741 641.47,758.125 L641.47,587.725 L675.762,587.725 z" fill="#007D5D"/>
    </g>
  </g>
</svg>
